#N canvas 861 136 478 400 10;
#X obj 6 -38 udpreceive 9997;
#X obj 6 -6 unpackOSC;
#X obj 76 79 unpack 0 0;
#X floatatom 76 103 5 0 0 0 - - -;
#X floatatom 133 103 5 0 0 0 - - -;
#X obj 6 55 routeOSC /channels /gyro;
#X obj 6 27 routeOSC /epoc;
#X text 68 117 gyro x;
#X text 127 117 gyro y;
#X obj 6 80 s ch;
#X obj 210 -39 r ch;
#X floatatom 210 316 5 0 0 0 - - -;
#X floatatom 225 295 5 0 0 0 - - -;
#X floatatom 240 274 5 0 0 0 - - -;
#X floatatom 256 253 5 0 0 0 - - -;
#X floatatom 271 230 5 0 0 0 - - -;
#X floatatom 287 208 5 0 0 0 - - -;
#X floatatom 349 112 5 0 0 0 - - -;
#X floatatom 302 182 5 0 0 0 - - -;
#X floatatom 318 157 5 0 0 0 - - -;
#X floatatom 333 133 5 0 0 0 - - -;
#X floatatom 364 89 5 0 0 0 - - -;
#X floatatom 380 67 5 0 0 0 - - -;
#X floatatom 395 41 5 0 0 0 - - -;
#X floatatom 411 17 5 0 0 0 - - -;
#X text 245 316 F3;
#X text 259 294 FC6;
#X text 275 274 P7;
#X text 289 253 T8;
#X text 303 229 F7;
#X text 319 208 F8;
#X obj 210 -10 unpack 0 0 0 0 0 0 0 0 0 0 0 0 0 0;
#X text 335 182 T7;
#X text 353 155 P8;
#X text 366 132 AF4;
#X text 382 111 F4;
#X text 397 89 AF3;
#X text 412 67 O2;
#X text 427 42 O1;
#X text 445 18 FC5;
#X connect 0 0 1 0;
#X connect 1 0 6 0;
#X connect 2 0 3 0;
#X connect 2 1 4 0;
#X connect 5 0 9 0;
#X connect 5 1 2 0;
#X connect 6 0 5 0;
#X connect 10 0 31 0;
#X connect 31 0 11 0;
#X connect 31 1 12 0;
#X connect 31 2 13 0;
#X connect 31 3 14 0;
#X connect 31 4 15 0;
#X connect 31 5 16 0;
#X connect 31 6 18 0;
#X connect 31 7 19 0;
#X connect 31 8 20 0;
#X connect 31 9 17 0;
#X connect 31 10 21 0;
#X connect 31 11 22 0;
#X connect 31 12 23 0;
#X connect 31 13 24 0;
